<svg width="300" height="300" viewBox="0 0 300 300" fill="none" xmlns="http://www.w3.org/2000/svg">
<rect width="300" height="300" fill="white"/>
<g clip-path="url(#clip0)">
<path d="M174.865 146.917C172.173 146.527 169.63 144.817 168.227 142.453C167.358 140.99 166.545 138.647 167.603 135.798C169.218 131.449 171.535 128.222 173.775 125.101C177.604 119.766 181.564 114.251 181.584 104.01C181.602 94.7675 176.021 85.4163 167.698 80.7411C162.305 77.7114 156.566 77.1735 151.544 79.1409C151.173 78.5274 150.766 77.8477 150.321 77.0979C149.222 75.2446 147.132 74.2415 144.998 74.5413C142.862 74.8421 141.129 76.385 140.583 78.4723C140.503 78.7774 140.428 79.0594 140.357 79.3264C140.346 79.3132 140.336 79.3009 140.326 79.2874C139.288 77.9639 137.76 76.0434 135.782 73.579C132.435 69.4065 127.739 63.5985 121.827 56.316C119.764 53.775 116.298 53.2608 113.586 55.091C110.873 56.9221 110.055 60.3289 111.64 63.192L124.121 85.7364C123.678 86.2054 123.246 86.6761 122.82 87.1423C119.018 91.3056 116.271 94.314 108.132 92.3466C107.059 92.0866 105.929 92.4368 105.19 93.2573C104.451 94.078 104.221 95.2376 104.591 96.2782C105.461 98.7247 109.798 104.538 117.356 106.885C115.889 109.014 114.379 111.101 113.358 112.248L113.154 112.476C109.92 116.103 107.364 118.967 107.467 122.475C107.571 126.032 109.241 131.31 113.603 134.476C116.138 136.317 119.183 137.238 122.703 137.238C125.014 137.238 127.531 136.841 130.242 136.045C131.98 135.535 133.549 134.938 134.935 134.412C136.704 133.74 138.232 133.159 139.484 132.987C143.651 132.412 146.647 131.505 148.835 130.49C148.682 131.956 148.559 133.489 148.491 135.096C148.195 142.049 150.156 147.22 154.319 150.465C157.865 153.229 162.377 154 166.31 154C171.083 154 175.001 152.864 175.293 152.777C176.646 152.374 177.538 151.084 177.435 149.675C177.331 148.267 176.262 147.119 174.865 146.917ZM116.903 60.2782C116.874 60.2264 116.86 60.1901 116.853 60.1686C116.894 60.1084 117.001 60.0364 117.072 60.0211C117.089 60.0354 117.118 60.0623 117.155 60.1084C130.091 76.0421 134.76 81.9089 136.35 83.9722C135.454 86.0179 133.324 86.8507 131.8 87.1886L116.903 60.2782ZM114.562 98.8696C120.793 98.2318 124.261 94.4849 127.189 91.28L127.523 91.8835C128.054 92.8417 129.062 93.4347 130.155 93.4347C130.169 93.4347 130.184 93.4345 130.199 93.4343C132.157 93.4056 135.133 92.8183 137.703 91.1841C137.759 93.297 138.209 95.2566 139.052 97.0349C137.16 99.0474 133.564 101.878 124.115 101.878C120.02 101.878 116.839 100.478 114.562 98.8696ZM151.585 114.704C151.058 116.891 150.516 119.146 150.091 121.618C150.089 121.631 150.086 121.644 150.083 121.657C149.97 121.817 149.866 121.976 149.766 122.127C148.911 123.422 147.32 125.834 138.662 127.027C136.732 127.293 134.821 128.019 132.797 128.788C131.451 129.299 130.06 129.828 128.546 130.272C123.588 131.728 119.749 131.504 117.136 129.607C114.36 127.592 113.531 124.064 113.48 122.298C113.447 121.185 115.676 118.686 117.643 116.481L117.848 116.251C119.4 114.509 121.927 110.913 123.953 107.893C124.007 107.893 124.061 107.895 124.115 107.895C129.803 107.894 134.557 106.942 138.244 105.064C141.485 103.413 143.225 101.423 144.264 100.234C144.455 100.016 144.693 99.7433 144.784 99.6614C145.923 98.6329 146.105 96.9114 145.206 95.6675C144.22 94.3023 143.731 92.73 143.71 90.8604C143.69 89.1239 144.098 87.1259 144.891 85.0821C145.178 84.3417 145.538 83.1843 145.982 81.568C146.748 82.8432 147.386 83.8815 147.886 84.6653C149.431 87.0864 151.017 90.7386 150.849 93.0384C150.784 93.9466 150.57 94.8587 150.213 95.7491C149.815 96.7411 149.973 97.8694 150.628 98.7136C154.136 103.232 153.368 107.304 151.585 114.704ZM163.053 145.524C163.566 146.388 164.163 147.195 164.829 147.935C162.341 147.769 159.849 147.154 158.005 145.711C155.471 143.729 154.292 140.244 154.5 135.353C154.679 131.159 155.27 127.387 155.791 124.06L155.892 123.413C156.295 120.839 156.874 118.437 157.434 116.114C159.066 109.34 160.615 102.918 156.344 96.3739C156.611 95.4175 156.78 94.447 156.85 93.4737C157.08 90.3204 155.799 86.8712 154.624 84.4407C154.623 84.4386 154.622 84.436 154.621 84.4339C158.737 83.2114 162.602 84.7798 164.751 85.9868C171.133 89.5716 175.58 96.9784 175.567 103.999C175.551 112.31 172.463 116.612 168.887 121.593C166.53 124.876 163.859 128.598 161.963 133.703C160.492 137.664 160.879 141.862 163.053 145.524Z" fill="black"/>
<path d="M141.011 106C139.437 106 137.93 107.384 138.003 109.008C138.076 110.638 139.324 112.016 141.011 112.016C142.584 112.016 144.092 110.633 144.019 109.008C143.946 107.378 142.697 106 141.011 106Z" fill="black"/>
<line x1="133.898" y1="76.627" x2="127.898" y2="83.627" stroke="black" stroke-width="5"/>
<line x1="128.898" y1="67.627" x2="122.898" y2="74.627" stroke="black" stroke-width="5"/>
</g>
<path d="M106.374 234C105.521 234 104.881 233.84 104.454 233.52C104.081 233.2 103.894 232.667 103.894 231.92V221.44C103.201 220.96 101.894 220.533 99.9744 220.16C98.0544 219.787 96.241 219.547 94.5344 219.44C93.9477 220.56 93.521 221.92 93.2544 223.52L92.9344 225.12C92.881 225.493 92.721 226.32 92.4544 227.6C92.1877 228.88 91.8944 230 91.5744 230.96C91.2544 231.867 90.9344 232.587 90.6144 233.12C88.5877 233.12 87.4144 232.587 87.0944 231.52C87.681 230.667 88.3477 228.16 89.0944 224L91.7344 209.36C92.9077 202.427 93.9744 196.507 94.9344 191.6C95.9477 186.693 97.0144 182.587 98.1344 179.28C99.361 175.6 100.534 173.76 101.654 173.76C102.774 173.76 103.628 173.973 104.214 174.4C104.214 176.533 104.721 181.68 105.734 189.84C106.801 197.84 107.334 203.307 107.334 206.24C107.334 209.067 107.628 213.12 108.214 218.4C108.748 223.787 109.014 228.08 109.014 231.28C109.014 233.093 108.134 234 106.374 234ZM102.214 216.8C102.641 216.8 103.174 216.72 103.814 216.56C103.654 214.213 103.388 211.307 103.014 207.84C101.788 195.787 101.174 188.4 101.174 185.68V185.04C100.641 185.573 99.8944 188 98.9344 192.32C98.0277 196.587 97.1744 201.173 96.3744 206.08C95.5744 210.987 95.1477 214.24 95.0944 215.84C97.3344 216.48 99.7077 216.8 102.214 216.8ZM130.903 235.28C128.983 234.64 126.61 234.32 123.783 234.32C122.93 234.853 122.023 235.12 121.063 235.12C120.423 235.12 119.863 234.827 119.383 234.24C118.956 233.707 118.743 233.12 118.743 232.48C118.743 228 118.93 222.027 119.303 214.56C119.623 206.613 119.783 200.667 119.783 196.72V196.16C119.463 192.8 119.303 190.293 119.303 188.64C119.303 183.573 120.236 181.04 122.103 181.04C122.636 181.04 123.09 181.253 123.463 181.68C123.89 182.053 124.103 182.507 124.103 183.04C124.103 183.68 124.023 184.693 123.863 186.08C123.703 187.413 123.623 188.427 123.623 189.12C123.623 192.693 123.65 195.92 123.703 198.8C123.756 201.627 123.783 204.827 123.783 208.4C123.516 209.2 123.383 210.32 123.383 211.76V212.72L123.223 219.04C123.116 220.907 123.063 223.04 123.063 225.44C123.063 229.12 123.943 230.96 125.703 230.96C125.81 230.96 125.97 230.96 126.183 230.96C126.45 230.907 126.796 230.88 127.223 230.88C127.703 230.827 128.316 230.8 129.063 230.8C131.943 230.8 133.383 231.6 133.383 233.2C133.383 233.733 133.143 234.187 132.663 234.56C132.183 234.933 131.596 235.173 130.903 235.28ZM144.469 232.72L144.389 229.6C144.336 228.693 144.309 227.68 144.309 226.56L144.389 223.84C144.229 223.253 143.829 217.413 143.189 206.32C142.549 195.227 142.176 188.107 142.069 184.96C138.976 184.853 137.003 184.533 136.149 184C135.563 183.573 135.269 183.093 135.269 182.56C135.269 182.133 135.536 181.76 136.069 181.44C136.656 181.067 137.243 180.88 137.829 180.88C139.323 180.88 141.136 180.987 143.269 181.2C145.296 181.467 147.109 181.6 148.709 181.6H149.349H149.989C151.643 181.6 152.469 182.24 152.469 183.52C152.469 184.16 152.203 184.693 151.669 185.12C151.136 185.493 150.523 185.68 149.829 185.68C149.349 185.68 148.656 185.6 147.749 185.44L146.149 185.12L146.069 185.52L145.989 185.92C145.989 190.667 146.443 198.24 147.349 208.64C148.203 218.4 148.629 225.973 148.629 231.36C148.629 232 148.336 232.56 147.749 233.04C147.216 233.52 146.603 233.76 145.909 233.76L144.469 232.72ZM164.138 235.04C163.445 235.04 162.805 234.8 162.218 234.32C161.685 233.84 161.391 233.253 161.338 232.56V230.48V228.88C161.285 228.4 161.258 227.84 161.258 227.2C161.258 226.08 161.178 224.373 161.018 222.08L160.858 216.96C160.858 214.347 160.938 210.453 161.098 205.28C161.311 200.64 161.418 196.747 161.418 193.6C161.418 192.853 161.338 191.733 161.178 190.24C161.018 188.693 160.938 187.573 160.938 186.88C160.938 183.093 162.058 181.2 164.298 181.2C166.058 181.2 168.085 181.547 170.378 182.24C172.725 182.933 173.898 183.76 173.898 184.72C173.898 185.253 173.658 185.76 173.178 186.24C172.751 186.667 172.218 187.013 171.578 187.28C169.338 186.48 167.311 185.947 165.498 185.68C165.551 186.48 165.578 187.627 165.578 189.12C165.578 191.253 165.551 193.173 165.498 194.88C165.338 197.44 165.258 199.36 165.258 200.64L165.498 201.92L166.778 201.84C167.205 201.787 167.738 201.76 168.378 201.76C170.938 201.76 172.218 202.507 172.218 204C172.218 204.587 171.978 205.093 171.498 205.52C171.018 205.893 170.405 206.08 169.658 206.08C168.698 206.08 167.951 206.027 167.418 205.92H165.418C165.525 207.307 165.578 209.333 165.578 212C165.578 214.667 165.551 217.067 165.498 219.2C165.338 222.453 165.258 224.88 165.258 226.48C165.258 229.467 165.311 230.96 165.418 230.96L168.058 230.88C168.965 230.827 170.058 230.8 171.338 230.8C173.365 230.8 174.378 231.44 174.378 232.72C174.378 233.467 174.031 234.027 173.338 234.4C172.698 234.827 171.898 235.04 170.938 235.04H164.138ZM197.193 235.36C196.019 235.36 194.953 234.08 193.993 231.52C192.873 228.747 192.046 225.893 191.513 222.96L190.953 220.24C189.406 212.613 188.419 208.267 187.993 207.2H187.033C187.033 208.747 187.006 210.16 186.953 211.44V215.84C186.953 222.987 187.459 228.56 188.473 232.56L187.593 234.72H185.353L184.313 233.52L184.393 228.16C184.393 223.36 184.153 216.08 183.673 206.32C183.246 195.92 183.033 188.64 183.033 184.48C183.033 181.92 183.913 180.64 185.673 180.64C188.553 180.64 190.899 181.387 192.713 182.88C194.579 184.373 195.513 186.453 195.513 189.12V194.72C195.513 195.52 195.379 196.453 195.113 197.52C194.846 198.533 194.553 199.36 194.233 200L192.713 202.88L191.433 205.28L191.833 207.2L192.953 212.88C193.699 216.987 194.419 220.32 195.113 222.88C195.806 225.44 196.659 227.76 197.673 229.84L198.153 230.8C198.686 231.867 198.953 232.72 198.953 233.36C198.953 233.893 198.793 234.347 198.473 234.72C198.153 235.147 197.726 235.36 197.193 235.36ZM187.353 203.28C188.526 202.693 189.513 201.093 190.313 198.48C191.166 195.813 191.593 193.36 191.593 191.12C191.593 189.413 191.379 187.813 190.953 186.32C190.686 185.467 190.233 184.827 189.593 184.4C189.006 183.92 188.259 183.68 187.353 183.68L187.193 184.08L187.033 184.8L187.193 194.24C187.299 197.013 187.353 200.027 187.353 203.28ZM207.986 234.16C207.4 234.16 206.893 234 206.466 233.68C206.04 233.307 205.826 232.853 205.826 232.32C205.826 229.12 206.44 224.907 207.666 219.68C208.946 214.453 210.786 208 213.186 200.32C215.586 192.373 217.08 187.253 217.666 184.96C217.026 184.96 215.986 185.04 214.546 185.2C213.106 185.36 211.96 185.44 211.106 185.44C210.573 185.44 210.093 185.227 209.666 184.8C209.24 184.32 209.026 183.787 209.026 183.2C209.026 181.653 211.96 180.88 217.826 180.88C220.493 180.88 221.826 181.627 221.826 183.12C221.826 184.827 221.24 187.36 220.066 190.72C218.946 193.707 218.253 195.973 217.986 197.52C217.453 201.307 216.066 207.493 213.826 216.08L210.306 229.92H211.746L213.426 229.76C213.906 229.707 214.466 229.68 215.106 229.68V229.6C217.24 229.6 218.306 230.267 218.306 231.6C218.306 232.187 218.04 232.667 217.506 233.04C216.973 233.36 216.306 233.52 215.506 233.52C214.653 233.52 213.88 233.493 213.186 233.44L210.786 233.28C210.466 233.28 210.013 233.44 209.426 233.76C208.733 234.027 208.253 234.16 207.986 234.16Z" fill="black"/>
<defs>
<clipPath id="clip0">
<rect width="100" height="100" fill="white" transform="translate(93 54)"/>
</clipPath>
</defs>
</svg>
